<?xml version="1.0" ?><!-- Uploaded to: SVG Repo, www.svgrepo.com, Generator: SVG Repo Mixer Tools -->
<svg width="800px" height="800px" viewBox="0 0 1000 1000" id="Layer_2" version="1.1" xml:space="preserve" xmlns="http://www.w3.org/2000/svg" xmlns:xlink="http://www.w3.org/1999/xlink"><path d="M849.715,578.942c-7.079-4.89-15.52-7.55-24.2-7.55h-33.78l-2.46-14.399  c-2.52,0.689-5.14,1.18-7.83,1.439l-57.89,5.61l34.76,85.93c0.62,1.51,1.82,2.71,3.34,3.31l37.36,14.769  c4.32,1.71,8.85-1.97,8.07-6.55l-5.69-33.41h3.04c8.68,0,17.11-2.66,24.19-7.55c2-1.38,2-4.38,0-5.771  c-7.08-4.89-15.51-7.54-24.19-7.54h-6.6l-2.55-14.979h30.23c8.68,0,17.12-2.65,24.2-7.54  C851.715,583.322,851.715,580.322,849.715,578.942z" style="fill:#231F20;"/><path d="M675.035,581.213l4.32,0.42c6.88,0.67,12.84-4.74,12.84-11.66v-19.97l87.61-8.49  c14.77-1.43,26.04-13.84,26.04-28.68v-25.391c0-14.84-11.271-27.25-26.04-28.69l-87.61-8.48v-19.97c0-6.92-5.96-12.33-12.84-11.66  l-4.37,0.42l39.51-231.899c1.14-6.73-5.51-12.13-11.86-9.62l-76.68,30.319c-2.23,0.881-4,2.641-4.9,4.86l-25.02,61.83h-31.1  c-15.28,0-30.13,4.67-42.6,13.29c-3.54,2.45-3.54,7.71,0,10.16c12.47,8.62,27.32,13.29,42.6,13.29h16.24l-10.67,26.37h-42.7  c-15.29,0-30.14,4.67-42.61,13.29c-3.53,2.449-3.53,7.71,0,10.149c12.47,8.62,27.32,13.3,42.61,13.3h27.84l-23.68,58.521  l-89.62,8.68c-0.89,0.09-1.74,0.27-2.56,0.54c-19.48,6.45-39.59,10.82-60.11,10.82h-8.26c-12.42,0-23.71,4.8-32.13,12.649h-98.14  c-33.94,0-66.74,12.261-92.36,34.521c25.62,22.269,58.42,34.53,92.36,34.53h98.14c8.42,7.84,19.71,12.649,32.13,12.649h8.26  c20.52,0,40.63,4.36,60.11,10.82c0.81,0.269,1.67,0.45,2.56,0.54l89.729,8.689l23.68,58.511h-27.95c-15.29,0-30.14,4.68-42.61,13.3  c-3.53,2.439-3.53,7.7,0,10.149c12.47,8.62,27.32,13.29,42.61,13.29h42.81l10.671,26.37h-16.35c-15.28,0-30.13,4.67-42.6,13.29  c-3.54,2.45-3.54,7.71,0,10.16c12.47,8.61,27.32,13.29,42.6,13.29h31.21l24.91,61.56c0.9,2.22,2.67,3.979,4.9,4.859l76.68,30.311  c6.35,2.52,13-2.881,11.86-9.61L675.035,581.213z M413.855,524.503c-23.2,0-42-10.97-42-24.5c0-13.53,18.8-24.5,42-24.5  c23.2,0,42,10.97,42,24.5C455.855,513.533,437.055,524.503,413.855,524.503z" style="fill:#231F20;"/><path d="M849.715,415.293c-7.079-4.891-15.52-7.55-24.2-7.55h-30.23l2.55-14.971h6.6  c8.68,0,17.11-2.65,24.19-7.55c2-1.38,2-4.38,0-5.76c-7.08-4.9-15.51-7.55-24.19-7.55h-3.05l5.7-33.42  c0.78-4.58-3.75-8.25-8.07-6.54l-37.36,14.77c-1.519,0.6-2.72,1.8-3.34,3.311l-34.87,86.189l58,5.61  c2.68,0.26,5.28,0.739,7.79,1.439l2.5-14.67h33.78c8.68,0,17.12-2.649,24.2-7.54C851.715,419.673,851.715,416.673,849.715,415.293z" style="fill:#231F20;"/></svg>