<?xml version="1.0" encoding="utf-8"?><!-- Uploaded to: SVG Repo, www.svgrepo.com, Generator: SVG Repo Mixer Tools -->
<svg version="1.1" id="Uploaded to svgrepo.com" xmlns="http://www.w3.org/2000/svg" xmlns:xlink="http://www.w3.org/1999/xlink" 
	 width="800px" height="800px" viewBox="0 0 32 32" xml:space="preserve">
<style type="text/css">
	.linesandangles_een{fill:#111918;}
</style>
<path class="linesandangles_een" d="M16,7C9.925,7,5,10.925,5,17s4.925,10,11,10s11-3.925,11-10S22.075,7,16,7z M16,25
	c-5.299,0-9-3.29-9-8s3.701-8,9-8c0.623,0,1.221,0.049,1.796,0.137C17.923,9.399,18,9.69,18,10c0,1.103-0.897,2-2,2
	c-0.551,0-1.051-0.224-1.414-0.586l-1.415,1.415C13.895,13.552,14.895,14,16,14c2.209,0,4-1.791,4-4c0-0.096-0.021-0.186-0.028-0.28
	C23.054,10.932,25,13.59,25,17C25,21.71,21.299,25,16,25z M12,17h2v2h-2V17z M18,17h2v2h-2V17z"/>
</svg>