<?xml version="1.0" encoding="utf-8"?>

<!-- Uploaded to: SVG Repo, www.svgrepo.com, Generator: SVG Repo Mixer Tools -->
<svg height="800px" width="800px" version="1.1" id="Icons" xmlns="http://www.w3.org/2000/svg" xmlns:xlink="http://www.w3.org/1999/xlink" 
	 viewBox="0 0 32 32" xml:space="preserve">
<style type="text/css">
	.st0{fill:#FFFFFF;}
</style>
<path d="M29,9H3c-0.6,0-1,0.4-1,1v16c0,0.6,0.4,1,1,1h26c0.6,0,1-0.4,1-1V10C30,9.4,29.6,9,29,9z M15,23H7c-0.6,0-1-0.4-1-1
	c0-1.9,1-3.5,2.5-4.3C8.2,17.2,8,16.6,8,16c0-1.7,1.3-3,3-3s3,1.3,3,3c0,0.6-0.2,1.2-0.5,1.7C15,18.5,16,20.1,16,22
	C16,22.6,15.6,23,15,23z M25,21h-3c-0.6,0-1-0.4-1-1s0.4-1,1-1h3c0.6,0,1,0.4,1,1S25.6,21,25,21z M25,17h-6c-0.6,0-1-0.4-1-1
	s0.4-1,1-1h6c0.6,0,1,0.4,1,1S25.6,17,25,17z"/>
<g>
	<path d="M20,11h-8c-0.6,0-1-0.4-1-1V9c0-2.8,2.2-5,5-5s5,2.2,5,5v1C21,10.6,20.6,11,20,11z M13,9h6c0-1.7-1.3-3-3-3S13,7.3,13,9z"
		/>
</g>
</svg>